<svg width="52" height="44" viewBox="0 0 52 44" fill="none" xmlns="http://www.w3.org/2000/svg">
<path d="M39.3207 11.574C38.3652 11.3595 37.5722 10.7528 37.1518 9.91212C33.6548 2.92896 26.0997 -0.808542 18.356 0.643124C11.5635 1.90196 6.07317 7.31429 4.693 14.1133C4.28133 16.1348 4.22067 18.1715 4.51317 20.1713C4.693 21.3998 4.3875 22.4961 3.67683 23.1786C1.30867 25.4385 0.00216667 28.4783 0 31.7391C0 38.5338 5.122 43.6558 11.9167 43.6558H35.178C44.1285 43.6558 51.6685 36.6488 51.9892 28.032C52.2795 20.206 46.9517 13.2835 39.3207 11.5718V11.574ZM35.178 41.4913H11.9167C6.26817 41.4913 2.16667 37.3898 2.16667 31.7435C2.16883 29.0806 3.237 26.5955 5.17617 24.7451C6.40033 23.573 6.942 21.7941 6.66033 19.8593C6.40467 18.1086 6.45883 16.3211 6.82067 14.5466C8.02533 8.60563 12.8223 3.87362 18.7547 2.77296C19.7253 2.59312 20.6938 2.50646 21.6472 2.50646C27.3607 2.50646 32.5953 5.64812 35.217 10.8828C35.932 12.3085 37.2537 13.3311 38.8505 13.6908C45.4632 15.1728 50.0782 21.1701 49.8247 27.954C49.5495 35.4181 42.978 41.4913 35.178 41.4913ZM33.0785 22.3185C33.501 22.741 33.501 23.4278 33.0785 23.8503C32.8662 24.0626 32.5888 24.1666 32.3115 24.1666C32.0342 24.1666 31.7568 24.0605 31.5445 23.8503L25.9957 18.3015V33.9166C25.9957 34.5146 25.5103 35 24.9123 35C24.3143 35 23.829 34.5146 23.829 33.9166V18.3015L18.2802 23.8503C17.8577 24.2728 17.1708 24.2728 16.7483 23.8503C16.3258 23.4278 16.3258 22.741 16.7483 22.3185L22.6135 16.4533C23.14 15.929 23.8095 15.6755 24.4942 15.5845C24.622 15.5303 24.7628 15.5 24.9102 15.5C25.0575 15.5 25.1983 15.5303 25.3262 15.5845C26.013 15.6733 26.6825 15.9268 27.209 16.4533L33.0742 22.3185H33.0785Z" fill="#0D6EFD"/>
</svg>
