<svg width="28" height="27" viewBox="0 0 28 27" fill="none" xmlns="http://www.w3.org/2000/svg">
<circle cx="14.25" cy="13.5" r="13.5" fill="#CED4DA"/>
<path d="M14.2504 13.5019C13.3769 13.5019 12.6291 13.1908 12.007 12.5688C11.385 11.9467 11.0739 11.1989 11.0739 10.3254C11.0739 9.45187 11.385 8.70407 12.007 8.08201C12.6291 7.45996 13.3769 7.14893 14.2504 7.14893C15.1239 7.14893 15.8717 7.45996 16.4938 8.08201C17.1158 8.70407 17.4269 9.45187 17.4269 10.3254C17.4269 11.1989 17.1158 11.9467 16.4938 12.5688C15.8717 13.1908 15.1239 13.5019 14.2504 13.5019ZM9.4857 19.8548C9.04893 19.8548 8.67517 19.6994 8.3644 19.3887C8.05311 19.0774 7.89746 18.7033 7.89746 18.2666V17.6313C7.89746 17.1813 8.0134 16.7675 8.24528 16.3901C8.47664 16.0131 8.78423 15.7254 9.16805 15.5269C9.98864 15.1166 10.8225 14.8087 11.6695 14.6033C12.5166 14.3984 13.3769 14.296 14.2504 14.296C15.1239 14.296 15.9842 14.3984 16.8313 14.6033C17.6783 14.8087 18.5122 15.1166 19.3328 15.5269C19.7166 15.7254 20.0242 16.0131 20.2555 16.3901C20.4874 16.7675 20.6033 17.1813 20.6033 17.6313V18.2666C20.6033 18.7033 20.448 19.0774 20.1372 19.3887C19.8259 19.6994 19.4519 19.8548 19.0151 19.8548H9.4857Z" fill="#0D6EFD"/>
</svg>
