<svg width="19" height="24" viewBox="0 0 19 24" fill="none" xmlns="http://www.w3.org/2000/svg">
<path d="M10.5 8H12.5V10H10.5V12H8.5V10H6.5V8H8.5V6H10.5V8ZM4.5 16H14.5V14H4.5V16ZM4.5 20H10.5V18H4.5V20ZM18.5 2V21C18.5 21.7956 18.1839 22.5587 17.6213 23.1213C17.0587 23.6839 16.2956 24 15.5 24H3.5C2.70435 24 1.94129 23.6839 1.37868 23.1213C0.816071 22.5587 0.5 21.7956 0.5 21V2H5.671C5.87858 1.41549 6.2619 0.909511 6.76839 0.551443C7.27487 0.193376 7.87973 0.000756748 8.5 0L10.5 0C11.1203 0.000756748 11.7251 0.193376 12.2316 0.551443C12.7381 0.909511 13.1214 1.41549 13.329 2H18.5ZM16.5 4H11.5V3C11.5 2.73478 11.3946 2.48043 11.2071 2.29289C11.0196 2.10536 10.7652 2 10.5 2H8.5C8.23478 2 7.98043 2.10536 7.79289 2.29289C7.60536 2.48043 7.5 2.73478 7.5 3V4H2.5V21C2.5 21.2652 2.60536 21.5196 2.79289 21.7071C2.98043 21.8946 3.23478 22 3.5 22H15.5C15.7652 22 16.0196 21.8946 16.2071 21.7071C16.3946 21.5196 16.5 21.2652 16.5 21V4Z" fill="#0D6EFD"/>
</svg>
