<svg width="24" height="24" viewBox="0 0 24 24" fill="none" xmlns="http://www.w3.org/2000/svg">
<g clip-path="url(#clip0_86_7112)">
<path d="M22 15.172V8C22 5.243 19.757 3 17 3H7C4.243 3 2 5.243 2 8V15.172C0.836 15.585 0 16.696 0 18C0 19.654 1.346 21 3 21H21C22.654 21 24 19.654 24 18C24 16.696 23.164 15.585 22 15.172ZM7 5H17C18.654 5 20 6.346 20 8V15H15.5C15.235 15 14.98 15.105 14.793 15.293L14.086 16H9.914L9.207 15.293C9.019 15.105 8.765 15 8.5 15H4V8C4 6.346 5.346 5 7 5ZM21 19H3C2.449 19 2 18.551 2 18C2 17.449 2.449 17 3 17H8.086L8.793 17.707C8.981 17.895 9.235 18 9.5 18H14.5C14.765 18 15.02 17.895 15.207 17.707L15.914 17H21C21.551 17 22 17.449 22 18C22 18.551 21.551 19 21 19ZM8 10C8 9.448 8.448 9 9 9H11V7C11 6.448 11.448 6 12 6C12.552 6 13 6.448 13 7V9H15C15.552 9 16 9.448 16 10C16 10.552 15.552 11 15 11H13V13C13 13.552 12.552 14 12 14C11.448 14 11 13.552 11 13V11H9C8.448 11 8 10.552 8 10Z" fill="black"/>
</g>
<defs>
<clipPath id="clip0_86_7112">
<rect width="24" height="24" fill="white"/>
</clipPath>
</defs>
</svg>
