<svg width="43" height="44" viewBox="0 0 43 44" fill="none" xmlns="http://www.w3.org/2000/svg">
<path fill-rule="evenodd" clip-rule="evenodd" d="M27.4724 13.0617C25.7045 11.8805 23.6261 11.25 21.5 11.25V0.5C25.7523 0.5 29.9091 1.76095 33.4448 4.12341C36.9804 6.48585 39.7361 9.8437 41.3634 13.7723C42.9907 17.7009 43.4165 22.0239 42.5869 26.1944C41.7573 30.365 39.7096 34.196 36.7028 37.2028C33.696 40.2096 29.865 42.2573 25.6944 43.0869C21.5239 43.9165 17.2009 43.4907 13.2723 41.8634C9.34369 40.2361 5.98585 37.4804 3.62341 33.9448C1.26095 30.4091 0 26.2523 0 22H10.75C10.75 24.1261 11.3805 26.2045 12.5617 27.9724C13.7429 29.7402 15.4218 31.118 17.3862 31.9317C19.3504 32.7454 21.5119 32.9582 23.5972 32.5434C25.6825 32.1287 27.5979 31.1048 29.1014 29.6014C30.6048 28.0979 31.6287 26.1825 32.0434 24.0972C32.4582 22.0119 32.2454 19.8504 31.4317 17.8862C30.618 15.9218 29.2402 14.2429 27.4724 13.0617Z" fill="#0D6EFD"/>
<path fill-rule="evenodd" clip-rule="evenodd" d="M10.75 0.500006C10.75 1.91172 10.4719 3.3096 9.9317 4.61386C9.39146 5.9181 8.59963 7.10317 7.60139 8.10141C6.60317 9.09964 5.4181 9.89147 4.11385 10.4317C2.80959 10.9719 1.41171 11.25 4.69892e-07 11.25L0 22C2.82342 22 5.61919 21.4439 8.2277 20.3634C10.8362 19.2829 13.2064 17.6993 15.2028 15.7028C17.1992 13.7064 18.7829 11.3362 19.8634 8.7277C20.9439 6.11919 21.5 3.32342 21.5 0.5L10.75 0.500006Z" fill="#0D6EFD"/>
</svg>
