<svg width="21" height="24" viewBox="0 0 21 24" fill="none" xmlns="http://www.w3.org/2000/svg">
<path d="M7 13.5C7 15.43 8.57 17 10.5 17C12.43 17 14 15.43 14 13.5C14 11.57 12.43 10 10.5 10C8.57 10 7 11.57 7 13.5ZM12 13.5C12 14.327 11.327 15 10.5 15C9.673 15 9 14.327 9 13.5C9 12.673 9.673 12 10.5 12C11.327 12 12 12.673 12 13.5ZM12.914 0H3.5C1.846 0 0.5 1.346 0.5 3V24H20.5V7.586L12.914 0ZM13.5 3.414L17.086 7H13.5V3.414ZM13.5 22H7.5V21C7.5 20.449 7.949 20 8.5 20H12.5C13.052 20 13.5 20.449 13.5 21V22ZM18.5 22H15.5V21C15.5 19.346 14.154 18 12.5 18H8.5C6.846 18 5.5 19.346 5.5 21V22H2.5V3C2.5 2.449 2.949 2 3.5 2H11.5V9H18.5V22Z" fill="#0D6EFD"/>
</svg>
