<svg width="16" height="16" viewBox="0 0 16 16" fill="none" xmlns="http://www.w3.org/2000/svg">
<g clip-path="url(#clip0_53_2248)">
<path d="M1.21987 1.21338L1.91987 0.606709C2.72654 -0.199958 4.03321 -0.199958 4.83987 0.606709C4.85987 0.626709 6.09321 2.23338 6.09321 2.23338C6.85321 3.03338 6.85321 4.29338 6.09321 5.08671L5.31987 6.06004C6.29321 8.26671 7.80654 9.78671 9.93987 10.6934L10.9132 9.91338C11.7065 9.14671 12.9732 9.14671 13.7665 9.91338C13.7665 9.91338 15.3732 11.1467 15.3932 11.1667C16.1999 11.9734 16.1999 13.28 15.4265 14.0534L14.7599 14.82C13.9932 15.5867 12.9599 16.0067 11.8399 16.0067C6.74654 16.0067 -0.000125885 9.25338 -0.000125885 4.16671C-0.000125885 3.05338 0.419873 2.01338 1.21987 1.22004V1.21338ZM11.8399 14.6667C12.5999 14.6667 13.2999 14.3867 13.7799 13.9L14.4465 13.1334C14.7199 12.86 14.7332 12.4134 14.4732 12.1267C14.4732 12.1267 12.8799 10.9 12.8599 10.88C12.5865 10.6067 12.1065 10.6067 11.8265 10.88C11.8065 10.9 10.4665 11.9734 10.4665 11.9734C10.2799 12.12 10.0332 12.16 9.81321 12.0734C7.05321 11.02 5.07321 9.04671 3.93321 6.20004C3.84654 5.98004 3.87987 5.72671 4.03321 5.53338C4.03321 5.53338 5.10654 4.18671 5.11987 4.17338C5.40654 3.88671 5.40654 3.42671 5.11987 3.14004C5.09987 3.12004 3.87321 1.52671 3.87321 1.52671C3.58654 1.26671 3.13987 1.27338 2.83321 1.58004L2.13321 2.18671C1.61987 2.70004 1.33321 3.40004 1.33321 4.16004C1.33321 8.80004 7.84654 14.6667 11.8399 14.6667Z" fill="#FDFDFD"/>
</g>
<defs>
<clipPath id="clip0_53_2248">
<rect width="16" height="16" fill="white" transform="matrix(-1 0 0 1 16 0)"/>
</clipPath>
</defs>
</svg>
