<svg width="113" height="113" viewBox="0 0 113 113" fill="none" xmlns="http://www.w3.org/2000/svg">
<path d="M112.5 56.5C112.5 87.4279 87.4279 112.5 56.5 112.5C25.5721 112.5 0.5 87.4279 0.5 56.5C0.5 25.5721 25.5721 0.5 56.5 0.5C87.4279 0.5 112.5 25.5721 112.5 56.5ZM5.73619 56.5C5.73619 84.5361 28.4639 107.264 56.5 107.264C84.5361 107.264 107.264 84.5361 107.264 56.5C107.264 28.4639 84.5361 5.73619 56.5 5.73619C28.4639 5.73619 5.73619 28.4639 5.73619 56.5Z" fill="#0D6EFD"/>
<path d="M83.367 38.0088L48.6503 72.7256L32.8699 56.9452" stroke="#0D6EFD" stroke-width="10" stroke-linecap="round" stroke-linejoin="round"/>
</svg>
