<svg width="1920" height="1120" viewBox="0 0 1920 1120" fill="none" xmlns="http://www.w3.org/2000/svg">
<path d="M-452 690.7C-231.528 664.521 -264.744 615.687 -8.43602 782.304C247.872 948.919 262.947 992.33 354.045 1058.3C441.172 1121.39 547.708 1183.03 662.033 979.795C753.493 817.206 892.269 743.012 950.225 726.24C1006.71 716.844 1148.68 714.404 1264.65 779.806C1409.62 861.557 1414.98 844.911 1522.38 764.599C1629.77 684.288 1684.29 523.313 1799.09 546.715C1913.9 570.118 2029.43 658.824 2186.47 660.822C2343.5 662.82 2385.31 727.203 2492.14 657.135C2577.59 601.08 2665.21 538.891 2698.33 514.803M-113.977 66.2339C81.1089 219.737 89.9706 256.028 158.785 316.058C224.599 373.472 358.549 565.202 467.147 408.535C554.024 283.203 620.165 98.8607 668.511 89.4055C764.148 -15.8183 830.516 94.0164 919.564 155.371C1030.87 232.063 1036.52 218.944 1129.93 161.491C1223.35 104.037 1280.11 -22.6326 1371.48 4.57154C1462.84 31.7755 1487.59 203.249 1614.9 216.115C1742.21 228.979 1833.27 192.951 1925.43 143.764C1999.15 104.415 2075.1 60.245 2103.86 43.0785M-441.436 671.114C-224.636 648.583 -254.853 602.618 -6.07469 765.614C242.703 928.61 257.859 971.382 347.016 1036.34C433.429 1099.3 541.22 1165.04 655.487 963.343C746.899 801.985 882.995 724.461 940.656 707.952C998.108 695.373 1137.96 696.747 1253.05 762.084C1396.89 843.755 1402.27 827.224 1509.27 747.695C1616.27 668.168 1670.95 508.31 1785.01 531.896C1899.05 555.483 2011.91 647.086 2168.01 649.513C2324.09 651.941 2367.18 712.956 2473.58 643.608C2558.7 588.131 2645.98 526.561 2678.97 502.71M-430.877 651.482C-217.769 632.579 -245.007 589.5 -3.73334 748.834C237.539 908.168 252.779 950.302 340.001 1014.24C425.703 1077.06 534.725 1146.91 648.924 946.75C740.283 786.622 873.719 705.752 931.084 689.504C989.521 673.745 1127.24 678.923 1241.43 744.192C1384.17 825.776 1389.56 809.36 1496.17 730.612C1602.77 651.865 1657.61 493.124 1770.9 516.89C1884.19 540.656 1994.35 635.141 2149.5 637.995C2304.65 640.849 2349.03 698.501 2455.01 629.871C2539.78 574.966 2626.73 514.015 2659.59 490.401M-420.276 631.826C-210.88 616.528 -235.156 576.352 -1.36266 731.983C232.43 887.615 247.757 929.112 333.053 992.02C418.044 1054.7 528.273 1128.66 642.396 930.038C733.693 771.138 864.492 686.907 921.561 670.919C981.003 651.987 1116.57 660.956 1229.87 726.15C1371.49 807.644 1376.9 791.341 1483.1 713.371C1589.3 635.401 1644.3 477.777 1756.83 501.719C1869.37 525.66 1976.81 623.012 2131.01 626.286C2285.21 629.561 2330.91 683.859 2436.46 615.945C2520.89 561.612 2607.49 501.274 2640.25 477.896M-409.656 612.137C-203.992 600.423 -225.325 563.166 1.01332 715.054C227.351 866.941 242.77 907.802 326.147 969.672C410.429 1032.21 521.84 1110.29 635.877 913.199C727.108 755.524 855.292 667.916 912.063 652.187C972.528 630.086 1105.91 642.834 1218.33 707.95C1358.84 789.346 1364.27 773.159 1470.06 695.963C1575.86 618.768 1631.01 462.26 1742.78 486.373C1854.55 510.486 1959.26 610.691 2112.51 614.379C2265.77 618.069 2312.81 669.022 2417.91 601.818C2502.01 548.056 2588.27 488.329 2620.89 465.187M-399.013 592.407C-197.103 584.256 -215.511 549.935 3.39731 698.038C222.306 846.142 237.821 886.368 319.284 947.187C402.86 1009.58 515.428 1091.79 629.373 896.225C720.528 739.775 846.119 648.775 902.592 633.303C964.101 608.038 1095.29 624.553 1206.81 689.587C1346.22 770.879 1351.66 754.806 1457.05 678.384C1562.43 601.96 1617.71 446.567 1728.74 470.847C1839.75 495.127 1941.7 598.171 2094.01 602.269C2246.31 606.368 2294.73 653.984 2399.39 587.488C2483.13 534.292 2569.05 475.175 2601.54 452.266M-388.379 572.637C-190.241 568.028 -205.743 536.657 5.76267 680.935C217.266 825.213 232.881 864.805 312.439 924.565L313.268 925.188C396.067 987.382 509.389 1072.5 622.853 879.116C713.928 723.888 836.948 629.479 893.12 614.262C955.696 585.841 1084.66 606.11 1195.3 671.057C1333.59 752.241 1339.05 736.282 1444.03 660.628C1548.99 584.973 1604.42 430.696 1714.69 455.139C1824.94 479.582 1924.13 585.449 2075.47 589.951C2226.83 594.453 2276.62 638.741 2380.86 572.951C2464.25 520.318 2549.82 461.809 2582.18 439.133M-377.695 552.832C-183.349 551.743 -195.963 523.339 8.16265 663.752C212.289 804.165 228.008 843.124 305.667 901.813C387.833 963.905 502.644 1054.39 616.376 861.879C707.363 707.871 827.833 610.038 883.705 595.073C947.365 563.502 1074.08 587.512 1183.84 652.369C1321.03 733.439 1326.51 717.594 1431.06 642.705C1535.61 567.816 1591.17 414.653 1700.67 439.256C1810.18 463.858 1906.57 572.534 2056.97 577.435C2207.38 582.336 2258.57 623.302 2362.37 558.214C2445.39 506.145 2530.61 448.24 2562.85 425.796M-366.991 532.995C-176.46 535.405 -186.203 509.986 10.5707 646.492C207.343 782.999 223.17 821.325 298.939 878.934C380.404 940.869 496.297 1035.5 609.912 844.514C700.803 691.727 818.748 590.454 874.317 575.741C939.081 541.024 1063.53 568.764 1172.4 633.523C1308.49 714.473 1313.98 698.745 1418.11 624.618C1522.25 550.492 1577.93 398.442 1686.67 423.199C1795.42 447.958 1889.01 559.428 2038.46 564.722C2187.91 570.016 2240.54 607.669 2343.87 543.281C2426.55 491.771 2511.42 434.468 2543.51 412.255M-356.261 513.113C-169.563 518.999 -176.455 496.579 12.9908 629.14C202.437 761.7 218.376 799.395 292.261 855.913C373.025 917.689 489.977 1016.47 603.465 827.01C694.256 675.439 809.696 570.713 864.963 556.249C930.852 518.393 1053.01 549.849 1161 614.509C1295.99 695.333 1301.5 679.718 1405.2 606.352C1508.91 532.985 1564.7 382.049 1672.7 406.958C1780.69 431.866 1871.46 546.115 2019.95 551.797C2168.46 557.481 2222.51 591.829 2325.41 528.137C2407.73 477.184 2492.23 420.481 2524.21 398.498M-345.539 493.191C-162.693 502.533 -166.752 483.128 15.3932 611.702C197.539 740.275 213.594 777.338 285.603 832.756C365.669 894.369 483.656 997.316 597.008 809.371C687.691 659.015 800.649 550.82 855.611 536.603C922.645 495.615 1042.49 530.774 1149.61 595.33C1283.5 676.024 1289.01 660.523 1392.29 587.913C1495.57 515.303 1551.47 365.478 1658.7 390.534C1765.94 415.59 1853.87 532.603 2001.42 538.667C2148.97 544.734 2204.5 575.787 2306.94 512.788C2388.89 462.388 2473.03 406.282 2504.87 384.529M-334.763 473.232C-155.791 486.008 -157.036 469.635 17.8351 594.182C192.706 718.728 208.882 755.163 279.022 809.469C358.391 870.916 477.387 978.032 590.596 791.603C681.164 642.46 791.663 530.781 846.32 516.809C914.519 472.693 1032.03 511.544 1138.27 575.991C1271.06 656.548 1276.59 641.162 1379.44 569.306C1482.27 497.449 1538.29 348.736 1644.77 373.934C1751.25 399.132 1836.33 518.895 1982.91 525.337C2129.5 531.781 2186.53 559.546 2288.5 497.237C2370.09 447.39 2453.87 391.878 2485.58 370.354M-323.969 453.245C-148.888 469.433 -147.339 456.107 20.2846 576.587C187.908 697.066 204.208 732.872 272.487 786.057C351.161 847.335 471.143 958.625 584.199 773.71C674.645 625.778 782.708 510.6 837.057 496.873C906.441 449.635 1021.6 492.165 1126.96 556.497C1258.66 636.914 1264.2 621.642 1366.61 550.536C1469.01 479.429 1525.13 331.828 1630.85 357.164C1736.55 382.502 1818.78 504.998 1964.41 511.813C2110.05 518.628 2168.57 543.115 2270.09 481.493C2351.31 432.195 2434.73 377.276 2466.3 355.978M-313.144 433.209C-141.975 452.787 -137.649 442.522 22.7525 558.896C183.155 675.268 199.583 710.447 266.009 762.501C343.989 823.605 464.931 939.077 577.827 755.674C668.144 608.951 773.793 490.259 827.836 476.773C898.424 426.422 1011.21 472.617 1115.69 536.832C1246.3 617.101 1251.85 601.942 1353.82 531.583C1455.78 461.226 1511.98 314.733 1616.94 340.204C1721.9 365.677 1801.23 490.891 1945.91 498.073C2090.59 505.254 2150.65 526.473 2251.7 465.534C2332.55 416.784 2415.61 362.453 2447.03 341.382M-302.349 413.12C-135.112 436.065 -128.029 428.88 25.1793 541.107C178.388 653.333 194.948 687.885 259.528 738.798C336.817 799.725 458.693 919.385 571.421 737.49C661.604 591.975 764.86 469.755 818.595 456.509C890.408 403.05 1000.79 452.896 1104.41 516.989C1233.92 597.106 1239.48 582.062 1341.01 512.447C1442.53 442.833 1498.81 297.45 1603.02 323.052C1707.22 348.655 1783.65 476.573 1927.37 484.115C2071.1 491.659 2132.7 509.616 2233.29 449.357C2313.75 401.152 2396.45 347.408 2427.73 326.563M-291.476 393.008C-128.189 419.298 -118.368 415.207 27.6732 523.246C173.715 631.287 190.411 665.214 253.153 714.976C329.752 775.722 452.539 899.577 565.089 719.189C655.131 574.877 756.019 449.115 809.444 436.107C882.501 379.548 990.468 433.032 1093.21 496.999C1221.63 576.956 1227.21 562.026 1328.28 493.154C1429.36 424.28 1485.71 280.005 1589.17 305.735C1692.61 331.464 1766.13 462.07 1908.89 469.968C2051.65 477.868 2114.83 492.573 2214.94 432.993C2295.03 385.329 2377.35 332.17 2408.5 311.547M-280.58 372.862C-121.261 402.476 -108.721 401.494 30.1801 505.309C169.082 609.123 185.919 642.427 246.83 691.028C322.74 751.59 446.413 879.645 558.779 700.76C648.671 557.652 747.213 428.333 800.328 415.561C874.651 355.907 980.175 413.016 1082.05 476.852C1209.39 556.647 1214.97 541.83 1315.59 473.695C1416.21 405.56 1472.65 262.392 1575.34 288.244C1678.03 314.096 1748.62 447.375 1890.42 455.625C2032.22 463.874 2096.98 475.337 2196.63 416.43C2276.34 369.305 2358.27 316.728 2389.29 296.33M-269.656 352.675C-114.327 385.59 -99.0867 387.732 32.7025 487.282C164.492 586.831 181.473 619.51 240.562 666.94C315.785 727.316 440.319 859.578 552.491 682.194C642.228 540.286 738.448 407.397 791.252 394.859C866.857 332.116 969.92 392.838 1070.92 456.539C1197.18 536.164 1202.77 521.461 1302.94 454.061C1403.1 386.661 1459.61 244.601 1561.54 270.571C1663.47 296.54 1731.11 432.477 1871.95 441.071C2012.79 449.667 2079.17 457.896 2178.34 399.661C2257.67 353.071 2339.22 301.073 2370.09 280.898M-258.733 332.441C-107.412 368.636 -89.492 373.918 35.2134 469.162C159.918 564.407 177.048 596.465 234.321 642.714C308.861 702.901 434.229 839.374 546.2 663.488C635.776 522.781 729.696 386.303 782.187 373.999C858.776 308.448 958.839 371.964 1058.56 435.264L1059.81 436.056C1184.99 515.508 1190.58 500.918 1290.29 434.25C1390 367.581 1446.56 226.627 1547.74 252.711C1648.91 278.796 1713.59 417.373 1853.47 426.308L1857.71 426.579C1994.74 435.338 2062.37 439.662 2160.05 382.68C2238.99 336.626 2320.17 285.204 2350.89 265.25M-247.756 312.179C-100.46 351.629 -79.8787 360.066 37.7695 450.967C155.418 541.868 172.7 573.305 228.166 618.364C302.023 678.356 428.203 819.048 539.963 644.658C629.371 505.146 721.013 365.07 773.191 352.995C851.424 284.098 949.496 352.002 1048.77 415.42C1172.86 494.691 1178.47 480.215 1277.71 414.276C1376.96 348.335 1433.57 208.486 1533.99 234.681C1634.42 260.876 1696.11 402.078 1835.02 411.348C1973.94 420.617 2043.61 422.407 2141.81 365.504C2220.37 319.981 2301.15 269.134 2331.73 249.4M-236.755 291.881C-93.504 334.567 -70.28 346.173 40.3393 432.692C150.959 519.211 168.397 550.027 222.064 593.886C295.24 653.681 422.205 798.598 533.747 625.7C622.98 487.382 712.369 343.692 764.232 331.847C843.808 259.882 939.353 331.358 1037.77 394.626C1160.78 473.713 1166.39 459.35 1265.17 394.135C1363.95 328.92 1420.61 190.175 1520.27 216.477C1619.94 242.778 1678.65 386.59 1816.59 396.189C1954.55 405.789 2025.89 404.373 2123.59 348.13C2201.77 303.137 2282.17 252.86 2312.61 233.346M-225.721 271.541C-86.5347 317.437 -60.688 332.23 42.9305 414.327C146.549 496.422 164.148 526.621 216.023 569.269C288.521 628.864 416.247 778.011 527.561 606.604C616.613 469.477 703.772 322.16 755.32 310.541C836.257 235.515 929.256 310.549 1026.81 373.665C1148.75 452.559 1154.36 438.312 1252.67 373.819C1350.98 309.325 1407.69 171.683 1506.59 198.087C1605.5 224.491 1661.19 370.899 1798.18 380.822C1935.17 390.744 2008.19 386.132 2105.42 330.548C2183.21 286.081 2263.22 236.372 2293.5 217.077M-214.693 251.165C-79.5893 300.25 -51.14 318.241 45.5072 395.878C142.154 473.514 159.917 503.094 210.009 544.523C281.829 603.914 410.291 757.296 521.371 587.376C610.235 451.441 695.185 300.48 746.417 289.086C828.737 211.008 919.167 289.585 1015.86 352.545C1136.73 431.243 1142.35 417.109 1240.18 353.334C1338.02 289.56 1394.76 153.02 1492.91 179.521C1591.06 206.023 1643.73 355.011 1779.75 365.251C1915.78 375.493 1990.51 367.694 2087.25 312.765C2164.63 268.821 2244.25 219.679 2274.38 200.602M-203.604 230.751C-72.6014 283.002 -41.5694 304.209 48.1342 377.346C137.837 450.483 155.768 479.447 204.085 519.646C275.23 578.832 404.403 736.453 515.239 568.017C603.908 433.269 686.675 278.654 737.591 267.483C821.312 186.359 909.152 268.466 1004.99 331.264C1124.78 409.761 1130.41 395.74 1227.77 332.681C1325.13 269.622 1381.89 134.183 1479.29 160.779C1576.69 187.375 1626.31 338.925 1761.37 349.479C1896.42 360.033 1972.9 349.058 2069.14 294.78C2146.13 251.357 2225.34 202.779 2255.33 183.917M-192.492 210.309C-65.608 265.703 -32.012 290.139 50.7764 358.738C133.565 427.338 151.668 455.688 198.217 494.646C268.689 553.622 398.547 715.489 509.132 548.535C597.6 414.972 678.207 256.687 728.803 245.738C813.947 161.575 899.175 247.198 994.155 309.83C1112.88 388.12 1118.51 374.213 1215.39 311.866C1312.27 249.519 1369.06 115.18 1465.7 141.866C1562.34 168.552 1608.91 322.649 1742.99 333.51C1877.09 344.372 1955.31 330.23 2051.06 276.6C2127.65 233.697 2206.46 185.679 2236.3 167.033M-181.351 189.83C-58.604 248.345 -22.464 276.025 53.4388 340.047C129.341 404.071 147.62 431.807 192.411 469.517C262.211 528.279 392.729 694.397 503.055 528.922C591.315 396.543 669.784 234.575 720.063 223.844C806.645 136.65 889.243 225.775 983.369 288.238C1101.03 366.315 1106.66 352.52 1203.06 290.882C1299.45 229.245 1356.25 96.0049 1452.14 122.777C1548.03 149.55 1591.53 306.176 1724.65 317.34C1857.77 328.506 1937.78 311.206 2033.01 258.221C2109.19 215.833 2187.62 168.374 2217.3 149.942M-170.229 169.295C-51.6387 230.907 -12.9733 261.845 56.0715 321.254C125.117 380.662 143.576 407.786 186.615 444.236C255.747 502.782 386.9 673.157 496.957 509.158C585.004 377.959 661.359 212.295 711.317 201.782C799.361 111.563 879.305 204.176 972.581 266.465C1089.18 344.325 1094.81 330.643 1190.72 269.71C1286.63 208.778 1343.44 76.6366 1438.57 103.491C1533.7 130.345 1574.11 289.487 1706.27 300.948C1838.42 312.409 1920.22 291.964 2014.95 239.62C2090.73 197.745 2168.74 150.84 2198.27 132.622M-159.032 148.75C-44.6147 213.436 -3.44534 247.649 58.772 302.404C120.99 357.159 139.633 383.672 180.929 418.854C249.393 477.18 381.156 651.816 490.937 489.29C578.764 359.268 653.028 189.895 702.667 179.598C792.189 86.3627 869.46 182.449 961.887 244.559C1077.42 322.196 1083.06 308.627 1178.48 248.397C1273.89 188.167 1330.71 57.1222 1425.08 84.0545C1519.46 110.987 1556.77 272.628 1687.95 284.38C1819.14 296.133 1902.75 272.55 1996.98 220.845C2072.35 179.48 2149.95 133.128 2179.34 115.122M-147.805 128.172C-37.58 195.909 6.0733 233.409 61.4928 283.473C116.912 333.537 135.744 359.44 175.305 393.346C243.104 451.447 375.452 630.35 484.949 469.293C572.548 340.448 644.745 167.353 694.061 157.268C785.085 61.0245 859.66 160.57 951.239 222.497C1065.71 299.906 1071.35 286.449 1166.28 226.919C1261.2 167.387 1318.01 37.4387 1411.63 64.4449C1505.26 91.4513 1539.45 255.575 1669.66 267.614C1799.89 279.652 1885.33 252.943 1979.03 201.872C2054.01 161.016 2131.19 115.213 2160.42 97.4184M-136.551 107.56C-30.5347 178.324 15.5836 219.127 64.2345 264.462C112.885 309.798 131.909 335.091 169.744 367.709C236.879 425.585 369.787 608.76 478.992 449.169C566.356 321.497 636.512 144.666 685.505 134.793C778.047 35.5482 849.907 138.538 940.64 200.279C1054.06 277.454 1059.7 264.111 1154.12 205.275C1248.55 146.44 1305.35 17.585 1398.22 44.6612C1491.09 71.7375 1522.14 238.328 1651.39 250.647C1780.65 262.967 1867.94 233.141 1961.14 182.702C2035.69 142.35 2112.47 97.094 2141.54 79.5099M-125.291 86.9049C-23.5013 160.674 25.0609 204.792 66.9729 245.361C108.885 285.931 128.104 310.617 164.221 341.938C230.695 399.584 364.136 587.034 473.041 428.907C560.165 302.406 628.303 121.826 676.972 112.163C771.052 9.92504 840.176 116.344 930.067 177.894C1042.43 254.831 1048.07 241.6 1141.99 183.457C1235.91 125.314 1292.7 -2.44747 1384.82 24.6947C1476.94 51.8369 1504.85 220.877 1633.13 233.472C1761.39 246.067 1850.58 213.135 1943.25 163.323C2017.39 123.474 2093.75 78.7627 2122.67 61.3878" stroke="url(#paint0_linear_53_2418)" stroke-opacity="0.6" stroke-width="1.33333"/>
<defs>
<linearGradient id="paint0_linear_53_2418" x1="1377.15" y1="1142.09" x2="1394.03" y2="-198.698" gradientUnits="userSpaceOnUse">
<stop stop-color="white"/>
<stop offset="1" stop-color="white" stop-opacity="0"/>
</linearGradient>
</defs>
</svg>
